<svg height="512pt" viewBox="-30 0 512 512" width="512pt" xmlns="http://www.w3.org/2000/svg"><path d="m356 270v-47c0-40.8125-28.917969-74.988281-67.335938-83.140625 13.257813-14.855469 21.335938-34.429687 21.335938-55.859375 0-46.316406-37.683594-84-84-84s-84 37.683594-84 84c0 21.429688 8.078125 41.003906 21.335938 55.859375-38.417969 8.152344-67.335938 42.328125-67.335938 83.140625v47h-96v242h452v-242zm-130 60v40.964844l85.414062-70.964844h105.992188l-178.136719 118.195312c-8.0625 5.347657-18.480469 5.347657-26.539062 0l-178.136719-118.195312h126.40625v30zm-35-30v-30h65v-7.039062l26.527344 22.035156-26.527344 22.039062v-7.035156zm35-270c29.773438 0 54 24.226562 54 54s-24.226562 54-54 54-54-24.226562-54-54 24.226562-54 54-54zm-100 193c0-30.328125 24.671875-55 55-55h90c30.328125 0 55 24.671875 55 55v47h-14.578125l-85.421875-70.960938v40.960938h-65v30h-35zm-96 259v-149.046875l166.144531 110.238281c9.070313 6.019532 19.460938 9.027344 29.855469 9.027344s20.785156-3.011719 29.855469-9.027344l166.144531-110.238281v149.046875zm0 0"/></svg>